<svg xmlns="http://www.w3.org/2000/svg" viewBox="0 0 256 256"><defs><radialGradient id="r"><stop stop-color="#fff"/><stop offset=".18" stop-color="#a8eaff"/><stop offset=".55" stop-color="#2e79ff" stop-opacity=".72"/><stop offset="1" stop-color="#2e79ff" stop-opacity="0"/></radialGradient><filter id="f"><feGaussianBlur stdDeviation="6" result="x"/><feMerge><feMergeNode in="x"/><feMergeNode in="SourceGraphic"/></feMerge></filter></defs><circle cx="128" cy="128" r="70" fill="url(#r)" opacity=".82"/><g filter="url(#f)"><path d="M171.3 135.7L226.5 145.4" stroke="#2e79ff" stroke-width="10" stroke-linecap="round" opacity=".82"/><path d="M164.5 154.3L203.5 182.3" stroke="#a8eaff" stroke-width="6" stroke-linecap="round" opacity=".82"/><path d="M147.6 164.0L170.5 206.2" stroke="#2e79ff" stroke-width="6" stroke-linecap="round" opacity=".82"/><path d="M129.9 167.0L132.3 214.9" stroke="#a8eaff" stroke-width="10" stroke-linecap="round" opacity=".82"/><path d="M113.2 163.0L94.6 207.2" stroke="#2e79ff" stroke-width="6" stroke-linecap="round" opacity=".82"/><path d="M99.5 153.1L63.5 184.9" stroke="#a8eaff" stroke-width="6" stroke-linecap="round" opacity=".82"/><path d="M91.4 138.3L37.5 153.4" stroke="#2e79ff" stroke-width="10" stroke-linecap="round" opacity=".82"/><path d="M86.6 120.7L31.5 110.9" stroke="#a8eaff" stroke-width="6" stroke-linecap="round" opacity=".82"/><path d="M92.3 102.3L46.8 69.6" stroke="#2e79ff" stroke-width="6" stroke-linecap="round" opacity=".82"/><path d="M106.5 88.5L83.6 46.3" stroke="#a8eaff" stroke-width="10" stroke-linecap="round" opacity=".82"/><path d="M126.0 87.1L123.6 39.1" stroke="#2e79ff" stroke-width="6" stroke-linecap="round" opacity=".82"/><path d="M143.2 92.1L166.9 35.9" stroke="#a8eaff" stroke-width="6" stroke-linecap="round" opacity=".82"/><path d="M156.5 102.9L197.8 66.5" stroke="#2e79ff" stroke-width="10" stroke-linecap="round" opacity=".82"/><path d="M164.6 117.7L213.7 103.9" stroke="#a8eaff" stroke-width="6" stroke-linecap="round" opacity=".82"/></g><circle cx="128" cy="128" r="18" fill="#fff9c7"/></svg>