<svg xmlns="http://www.w3.org/2000/svg" viewBox="0 0 640 320"><defs><linearGradient id="g" x1="0" y1="0" x2="1" y2="1"><stop stop-color="#fff8be"/><stop offset=".3" stop-color="#ffd43b"/><stop offset=".65" stop-color="#ff5b22"/><stop offset="1" stop-color="#8f0d24"/></linearGradient><radialGradient id="r"><stop stop-color="#fff" stop-opacity=".9"/><stop offset=".18" stop-color="#ffd653" stop-opacity=".66"/><stop offset=".68" stop-color="#ff3b18" stop-opacity=".16"/><stop offset="1" stop-color="#ff2800" stop-opacity="0"/></radialGradient><filter id="f"><feGaussianBlur stdDeviation="8" result="b"/><feMerge><feMergeNode in="b"/><feMergeNode in="SourceGraphic"/></feMerge></filter></defs><ellipse cx="320" cy="160" rx="260" ry="135" fill="url(#r)"/><path d="M319 20l35 70 78-33-31 79 77 37-82 9 17 84-66-52-48 71-13-84-85 16 55-65-63-57 85 3z" fill="url(#g)" opacity=".42" filter="url(#f)"/><circle cx="320" cy="151" r="86" fill="#170709" stroke="url(#g)" stroke-width="13"/><path d="M320 72c-44 0-70 28-70 66 0 27 14 45 31 55l9 38h60l9-38c17-10 31-28 31-55 0-38-26-66-70-66z" fill="#e7c29f" stroke="#571116" stroke-width="8"/><path d="M278 140l28 9-30 15M362 140l-28 9 30 15" fill="none" stroke="#68121a" stroke-width="9" stroke-linecap="round"/><path d="M303 194h34M320 177v17" stroke="#68121a" stroke-width="8"/><path d="M101 160h94M445 160h94M320 8v54M320 240v68" stroke="#fff1a0" stroke-width="12" stroke-linecap="round" filter="url(#f)"/></svg>