<svg xmlns="http://www.w3.org/2000/svg" viewBox="0 0 256 256"><defs><linearGradient id="g" x1="0" y1="0" x2="1" y2="1"><stop stop-color="#fff1e0"/><stop offset=".55" stop-color="#d2b8ae"/><stop offset="1" stop-color="#6f4550"/></linearGradient><filter id="f"><feGaussianBlur stdDeviation="5" result="b"/><feMerge><feMergeNode in="b"/><feMergeNode in="SourceGraphic"/></feMerge></filter></defs><path d="M128 24c-60 0-95 39-95 91 0 38 21 63 49 76v35h92v-35c28-13 49-38 49-76 0-52-35-91-95-91z" fill="url(#g)" stroke="#87192b" stroke-width="9" filter="url(#f)"/><path d="M65 118l40 13-43 29M191 118l-40 13 43 29" fill="#301018"/><path d="M128 145l-18 31h36z" fill="#4e2028"/><path d="M91 204v22M116 198v28M140 198v28M165 204v22" stroke="#5c2c34" stroke-width="9"/></svg>