<svg xmlns="http://www.w3.org/2000/svg" viewBox="0 0 640 180" width="640" height="180"><defs><linearGradient id="eArc" x1="0" y1="0" x2="1" y2="1"><stop offset="0" stop-color="#baffff"/><stop offset=".45" stop-color="#55eaff"/><stop offset="1" stop-color="#a64cff"/></linearGradient>
<radialGradient id="ePulse"><stop offset="0" stop-color="#ffffff"/><stop offset=".28" stop-color="#c8ffff" stop-opacity=".96"/><stop offset=".72" stop-color="#55dfff" stop-opacity=".35"/><stop offset="1" stop-color="#6c37ff" stop-opacity="0"/></radialGradient>
<filter id="eGlow" x="-50%" y="-70%" width="200%" height="240%"><feGaussianBlur stdDeviation="2.4" result="b"/><feMerge><feMergeNode in="b"/><feMergeNode in="SourceGraphic"/></feMerge></filter><clipPath id="ec0"><rect x="0" y="0" width="160" height="90"/></clipPath><clipPath id="ec1"><rect x="160" y="0" width="160" height="90"/></clipPath><clipPath id="ec2"><rect x="320" y="0" width="160" height="90"/></clipPath><clipPath id="ec3"><rect x="480" y="0" width="160" height="90"/></clipPath><clipPath id="ec4"><rect x="0" y="90" width="160" height="90"/></clipPath><clipPath id="ec5"><rect x="160" y="90" width="160" height="90"/></clipPath><clipPath id="ec6"><rect x="320" y="90" width="160" height="90"/></clipPath><clipPath id="ec7"><rect x="480" y="90" width="160" height="90"/></clipPath></defs><g clip-path="url(#ec0)"><path d="M 10 68 C 50 60, 82 58, 101 54" fill="none" stroke="#55ecff" stroke-width="3" stroke-linecap="round" stroke-dasharray="10 7" stroke-dashoffset="0" opacity="0.25" filter="url(#eGlow)"/><path d="M 18 77 C 58 68, 86 67, 105 61" fill="none" stroke="#9e62ff" stroke-width="2" stroke-linecap="round" stroke-dasharray="5 9" stroke-dashoffset="0" opacity="0.18" filter="url(#eGlow)"/><circle cx="112" cy="50" r="14" fill="url(#ePulse)" opacity="0.35" filter="url(#eGlow)"/><circle cx="112" cy="50" r="22.5" fill="none" stroke="url(#eArc)" stroke-width="3.2" stroke-dasharray="22 8" opacity="0.45" transform="rotate(0 112 50)" filter="url(#eGlow)"/><circle cx="112" cy="50" r="15" fill="none" stroke="#d9ffff" stroke-width="1.8" stroke-dasharray="5 6" opacity="0.35" transform="rotate(0 112 50)" filter="url(#eGlow)"/><line x1="139" y1="50" x2="147" y2="50" stroke="#79f7ff" stroke-width="2" stroke-linecap="round" opacity="0.22"/><line x1="112" y1="77" x2="112" y2="85" stroke="#79f7ff" stroke-width="2" stroke-linecap="round" opacity="0.22"/><line x1="85" y1="50" x2="77" y2="50" stroke="#79f7ff" stroke-width="2" stroke-linecap="round" opacity="0.22"/><line x1="112" y1="23" x2="112" y2="15" stroke="#79f7ff" stroke-width="2" stroke-linecap="round" opacity="0.22"/></g><g clip-path="url(#ec1)"><path d="M 170 68 C 210 60, 242 58, 261 54" fill="none" stroke="#55ecff" stroke-width="3" stroke-linecap="round" stroke-dasharray="10 7" stroke-dashoffset="-4" opacity="0.36" filter="url(#eGlow)"/><path d="M 178 77 C 218 68, 246 67, 265 61" fill="none" stroke="#9e62ff" stroke-width="2" stroke-linecap="round" stroke-dasharray="5 9" stroke-dashoffset="3.14" opacity="0.26" filter="url(#eGlow)"/><circle cx="272" cy="50" r="16.35" fill="url(#ePulse)" opacity="0.43" filter="url(#eGlow)"/><circle cx="272" cy="50" r="23.67" fill="none" stroke="url(#eArc)" stroke-width="3.2" stroke-dasharray="22 8" opacity="0.53" transform="rotate(47.14 272 50)" filter="url(#eGlow)"/><circle cx="272" cy="50" r="14.22" fill="none" stroke="#d9ffff" stroke-width="1.8" stroke-dasharray="5 6" opacity="0.43" transform="rotate(-68.57 272 50)" filter="url(#eGlow)"/><line x1="299" y1="50" x2="307.77" y2="50" stroke="#79f7ff" stroke-width="2" stroke-linecap="round" opacity="0.32"/><line x1="272" y1="77" x2="272" y2="85.77" stroke="#79f7ff" stroke-width="2" stroke-linecap="round" opacity="0.32"/><line x1="245" y1="50" x2="236.23" y2="50" stroke="#79f7ff" stroke-width="2" stroke-linecap="round" opacity="0.32"/><line x1="272" y1="23" x2="272" y2="14.23" stroke="#79f7ff" stroke-width="2" stroke-linecap="round" opacity="0.32"/></g><g clip-path="url(#ec2)"><path d="M 330 68 C 370 60, 402 58, 421 54" fill="none" stroke="#55ecff" stroke-width="3" stroke-linecap="round" stroke-dasharray="10 7" stroke-dashoffset="-8" opacity="0.46" filter="url(#eGlow)"/><path d="M 338 77 C 378 68, 406 67, 425 61" fill="none" stroke="#9e62ff" stroke-width="2" stroke-linecap="round" stroke-dasharray="5 9" stroke-dashoffset="6.29" opacity="0.34" filter="url(#eGlow)"/><circle cx="432" cy="50" r="16.92" fill="url(#ePulse)" opacity="0.5" filter="url(#eGlow)"/><circle cx="432" cy="50" r="23.96" fill="none" stroke="url(#eArc)" stroke-width="3.2" stroke-dasharray="22 8" opacity="0.61" transform="rotate(94.29 432 50)" filter="url(#eGlow)"/><circle cx="432" cy="50" r="14.03" fill="none" stroke="#d9ffff" stroke-width="1.8" stroke-dasharray="5 6" opacity="0.51" transform="rotate(-137.14 432 50)" filter="url(#eGlow)"/><line x1="459" y1="50" x2="468.54" y2="50" stroke="#79f7ff" stroke-width="2" stroke-linecap="round" opacity="0.41"/><line x1="432" y1="77" x2="432" y2="86.54" stroke="#79f7ff" stroke-width="2" stroke-linecap="round" opacity="0.41"/><line x1="405" y1="50" x2="395.46" y2="50" stroke="#79f7ff" stroke-width="2" stroke-linecap="round" opacity="0.41"/><line x1="432" y1="23" x2="432" y2="13.46" stroke="#79f7ff" stroke-width="2" stroke-linecap="round" opacity="0.41"/></g><g clip-path="url(#ec3)"><path d="M 490 68 C 530 60, 562 58, 581 54" fill="none" stroke="#55ecff" stroke-width="3" stroke-linecap="round" stroke-dasharray="10 7" stroke-dashoffset="-12" opacity="0.57" filter="url(#eGlow)"/><path d="M 498 77 C 538 68, 566 67, 585 61" fill="none" stroke="#9e62ff" stroke-width="2" stroke-linecap="round" stroke-dasharray="5 9" stroke-dashoffset="9.43" opacity="0.42" filter="url(#eGlow)"/><circle cx="592" cy="50" r="15.3" fill="url(#ePulse)" opacity="0.58" filter="url(#eGlow)"/><circle cx="592" cy="50" r="23.15" fill="none" stroke="url(#eArc)" stroke-width="3.2" stroke-dasharray="22 8" opacity="0.69" transform="rotate(141.43 592 50)" filter="url(#eGlow)"/><circle cx="592" cy="50" r="14.57" fill="none" stroke="#d9ffff" stroke-width="1.8" stroke-dasharray="5 6" opacity="0.59" transform="rotate(-205.71 592 50)" filter="url(#eGlow)"/><line x1="619" y1="50" x2="629.31" y2="50" stroke="#79f7ff" stroke-width="2" stroke-linecap="round" opacity="0.51"/><line x1="592" y1="77" x2="592" y2="87.31" stroke="#79f7ff" stroke-width="2" stroke-linecap="round" opacity="0.51"/><line x1="565" y1="50" x2="554.69" y2="50" stroke="#79f7ff" stroke-width="2" stroke-linecap="round" opacity="0.51"/><line x1="592" y1="23" x2="592" y2="12.69" stroke="#79f7ff" stroke-width="2" stroke-linecap="round" opacity="0.51"/></g><g clip-path="url(#ec4)"><path d="M 10 158 C 50 150, 82 148, 101 144" fill="none" stroke="#55ecff" stroke-width="3" stroke-linecap="round" stroke-dasharray="10 7" stroke-dashoffset="-16" opacity="0.67" filter="url(#eGlow)"/><path d="M 18 167 C 58 158, 86 157, 105 151" fill="none" stroke="#9e62ff" stroke-width="2" stroke-linecap="round" stroke-dasharray="5 9" stroke-dashoffset="12.57" opacity="0.5" filter="url(#eGlow)"/><circle cx="112" cy="140" r="12.7" fill="url(#ePulse)" opacity="0.66" filter="url(#eGlow)"/><circle cx="112" cy="140" r="21.85" fill="none" stroke="url(#eArc)" stroke-width="3.2" stroke-dasharray="22 8" opacity="0.77" transform="rotate(188.57 112 140)" filter="url(#eGlow)"/><circle cx="112" cy="140" r="15.43" fill="none" stroke="#d9ffff" stroke-width="1.8" stroke-dasharray="5 6" opacity="0.67" transform="rotate(-274.29 112 140)" filter="url(#eGlow)"/><line x1="139" y1="140" x2="150.09" y2="140" stroke="#79f7ff" stroke-width="2" stroke-linecap="round" opacity="0.61"/><line x1="112" y1="167" x2="112" y2="178.09" stroke="#79f7ff" stroke-width="2" stroke-linecap="round" opacity="0.61"/><line x1="85" y1="140" x2="73.91" y2="140" stroke="#79f7ff" stroke-width="2" stroke-linecap="round" opacity="0.61"/><line x1="112" y1="113" x2="112" y2="101.91" stroke="#79f7ff" stroke-width="2" stroke-linecap="round" opacity="0.61"/><circle cx="112" cy="140" r="7.05" fill="none" stroke="#ffffff" stroke-width="2.86" opacity="0.71" filter="url(#eGlow)"/></g><g clip-path="url(#ec5)"><path d="M 170 158 C 210 150, 242 148, 261 144" fill="none" stroke="#55ecff" stroke-width="3" stroke-linecap="round" stroke-dasharray="10 7" stroke-dashoffset="-20" opacity="0.78" filter="url(#eGlow)"/><path d="M 178 167 C 218 158, 246 157, 265 151" fill="none" stroke="#9e62ff" stroke-width="2" stroke-linecap="round" stroke-dasharray="5 9" stroke-dashoffset="15.71" opacity="0.58" filter="url(#eGlow)"/><circle cx="272" cy="140" r="11.08" fill="url(#ePulse)" opacity="0.74" filter="url(#eGlow)"/><circle cx="272" cy="140" r="21.04" fill="none" stroke="url(#eArc)" stroke-width="3.2" stroke-dasharray="22 8" opacity="0.85" transform="rotate(235.71 272 140)" filter="url(#eGlow)"/><circle cx="272" cy="140" r="15.97" fill="none" stroke="#d9ffff" stroke-width="1.8" stroke-dasharray="5 6" opacity="0.76" transform="rotate(-342.86 272 140)" filter="url(#eGlow)"/><line x1="299" y1="140" x2="310.86" y2="140" stroke="#79f7ff" stroke-width="2" stroke-linecap="round" opacity="0.7"/><line x1="272" y1="167" x2="272" y2="178.86" stroke="#79f7ff" stroke-width="2" stroke-linecap="round" opacity="0.7"/><line x1="245" y1="140" x2="233.14" y2="140" stroke="#79f7ff" stroke-width="2" stroke-linecap="round" opacity="0.7"/><line x1="272" y1="113" x2="272" y2="101.14" stroke="#79f7ff" stroke-width="2" stroke-linecap="round" opacity="0.7"/><circle cx="272" cy="140" r="14.03" fill="none" stroke="#ffffff" stroke-width="1.9" opacity="0.48" filter="url(#eGlow)"/></g><g clip-path="url(#ec6)"><path d="M 330 158 C 370 150, 402 148, 421 144" fill="none" stroke="#55ecff" stroke-width="3" stroke-linecap="round" stroke-dasharray="10 7" stroke-dashoffset="-24" opacity="0.8" filter="url(#eGlow)"/><path d="M 338 167 C 378 158, 406 157, 425 151" fill="none" stroke="#9e62ff" stroke-width="2" stroke-linecap="round" stroke-dasharray="5 9" stroke-dashoffset="18.86" opacity="0.6" filter="url(#eGlow)"/><circle cx="432" cy="140" r="11.65" fill="url(#ePulse)" opacity="0.75" filter="url(#eGlow)"/><circle cx="432" cy="140" r="21.33" fill="none" stroke="url(#eArc)" stroke-width="3.2" stroke-dasharray="22 8" opacity="0.87" transform="rotate(282.86 432 140)" filter="url(#eGlow)"/><circle cx="432" cy="140" r="15.78" fill="none" stroke="#d9ffff" stroke-width="1.8" stroke-dasharray="5 6" opacity="0.77" transform="rotate(-411.43 432 140)" filter="url(#eGlow)"/><line x1="459" y1="140" x2="471" y2="140" stroke="#79f7ff" stroke-width="2" stroke-linecap="round" opacity="0.72"/><line x1="432" y1="167" x2="432" y2="179" stroke="#79f7ff" stroke-width="2" stroke-linecap="round" opacity="0.72"/><line x1="405" y1="140" x2="393" y2="140" stroke="#79f7ff" stroke-width="2" stroke-linecap="round" opacity="0.72"/><line x1="432" y1="113" x2="432" y2="101" stroke="#79f7ff" stroke-width="2" stroke-linecap="round" opacity="0.72"/><circle cx="432" cy="140" r="21.02" fill="none" stroke="#ffffff" stroke-width="0.95" opacity="0.24" filter="url(#eGlow)"/></g><g clip-path="url(#ec7)"><path d="M 490 158 C 530 150, 562 148, 581 144" fill="none" stroke="#55ecff" stroke-width="3" stroke-linecap="round" stroke-dasharray="10 7" stroke-dashoffset="-28" opacity="0.8" filter="url(#eGlow)"/><path d="M 498 167 C 538 158, 566 157, 585 151" fill="none" stroke="#9e62ff" stroke-width="2" stroke-linecap="round" stroke-dasharray="5 9" stroke-dashoffset="22" opacity="0.6" filter="url(#eGlow)"/><circle cx="592" cy="140" r="14" fill="url(#ePulse)" opacity="0.75" filter="url(#eGlow)"/><circle cx="592" cy="140" r="22.5" fill="none" stroke="url(#eArc)" stroke-width="3.2" stroke-dasharray="22 8" opacity="0.87" transform="rotate(330 592 140)" filter="url(#eGlow)"/><circle cx="592" cy="140" r="15" fill="none" stroke="#d9ffff" stroke-width="1.8" stroke-dasharray="5 6" opacity="0.77" transform="rotate(-480 592 140)" filter="url(#eGlow)"/><line x1="619" y1="140" x2="631" y2="140" stroke="#79f7ff" stroke-width="2" stroke-linecap="round" opacity="0.72"/><line x1="592" y1="167" x2="592" y2="179" stroke="#79f7ff" stroke-width="2" stroke-linecap="round" opacity="0.72"/><line x1="565" y1="140" x2="553" y2="140" stroke="#79f7ff" stroke-width="2" stroke-linecap="round" opacity="0.72"/><line x1="592" y1="113" x2="592" y2="101" stroke="#79f7ff" stroke-width="2" stroke-linecap="round" opacity="0.72"/><circle cx="592" cy="140" r="28" fill="none" stroke="#ffffff" stroke-width="0.8" opacity="0" filter="url(#eGlow)"/></g></svg>
