<svg xmlns="http://www.w3.org/2000/svg" viewBox="0 0 512 256" width="512" height="256"><defs><linearGradient id="case" x1="0" y1="0" x2="1" y2="1"><stop stop-color="#72776c"/><stop offset=".34" stop-color="#343b39"/><stop offset=".68" stop-color="#171c1d"/><stop offset="1" stop-color="#555b53"/></linearGradient><linearGradient id="sleeve" x1="0" y1="0" x2="1" y2="1"><stop stop-color="#5d6870"/><stop offset=".4" stop-color="#252e34"/><stop offset="1" stop-color="#0a0e11"/></linearGradient><linearGradient id="glove" x1="0" y1="0" x2="1" y2="1"><stop stop-color="#414a50"/><stop offset=".5" stop-color="#171d21"/><stop offset="1" stop-color="#06090b"/></linearGradient></defs><svg x="0" y="0" width="128" height="128" viewBox="0 0 128 128" overflow="hidden"><g class="frame row-0">
<g><rect x="22" y="27" width="78" height="64" rx="9" fill="url(#case)" stroke="#7b868b" stroke-width="1.2"/><path d="M28 32L43 24H80L96 35V81L84 92H38L22 79Z" fill="none" stroke="#414b50" stroke-width="2"/><rect x="32" y="34" width="40" height="18" rx="3" fill="#071518" stroke="#477e82"/><path d="M38 44Q49 35 61 43Q53 51 39 47Z" fill="#42edff" opacity="0.3"/><path d="M75 25V8h7v19" fill="#30383d" stroke="#7c878b"/><rect x="75" y="13" width="7" height="3" fill="#ff4940" opacity="0.08"/><rect x="42" y="57" width="29" height="26" rx="4" fill="#10161a" stroke="#68737a"/><rect x="51" y="61" width="11" height="17" rx="2" fill="#3b1615" stroke="#8d4841"/><rect x="53" y="64" width="7" height="8" rx="1.5" fill="#ff3c32" opacity="0.32"/><rect x="27" y="57" width="4" height="26" rx="2" fill="#ff3d31" opacity="0.08"/><rect x="91" y="57" width="4" height="26" rx="2" fill="#ff3d31" opacity="0.08"/><circle cx="57" cy="70" r="18" fill="none" stroke="#58efff" stroke-width="2.3" stroke-dasharray="7 4" opacity="0"/><circle cx="57" cy="70" r="12" fill="none" stroke="#8bf8ff" stroke-width="1.4" opacity="0"/></g>
<g transform="translate(0 0)" opacity="1"><path d="M132 119L94 80L75 84L99 130Z" fill="url(#sleeve)"/><rect x="67" y="47" width="23" height="31" rx="10" fill="url(#glove)"/><path d="M17 102L36 75L50 82L37 126Z" fill="url(#sleeve)"/><rect x="31" y="57" width="19" height="29" rx="9" fill="url(#glove)"/></g>
</g></svg><svg x="128" y="0" width="128" height="128" viewBox="0 0 128 128" overflow="hidden"><g class="frame row-0">
<g><rect x="22" y="27" width="78" height="64" rx="9" fill="url(#case)" stroke="#7b868b" stroke-width="1.2"/><path d="M28 32L43 24H80L96 35V81L84 92H38L22 79Z" fill="none" stroke="#414b50" stroke-width="2"/><rect x="32" y="34" width="40" height="18" rx="3" fill="#071518" stroke="#477e82"/><path d="M38 44Q49 35 61 43Q53 51 39 47Z" fill="#42edff" opacity="0.34"/><path d="M75 25V8h7v19" fill="#30383d" stroke="#7c878b"/><rect x="75" y="13" width="7" height="3" fill="#ff4940" opacity="0.12"/><rect x="42" y="57" width="29" height="26" rx="4" fill="#10161a" stroke="#68737a"/><rect x="51" y="61" width="11" height="17" rx="2" fill="#3b1615" stroke="#8d4841"/><rect x="53" y="64" width="7" height="8" rx="1.5" fill="#ff3c32" opacity="0.32"/><rect x="27" y="57" width="4" height="26" rx="2" fill="#ff3d31" opacity="0.12"/><rect x="91" y="57" width="4" height="26" rx="2" fill="#ff3d31" opacity="0.12"/><circle cx="57" cy="70" r="18" fill="none" stroke="#58efff" stroke-width="2.3" stroke-dasharray="7 4" opacity="0"/><circle cx="57" cy="70" r="12" fill="none" stroke="#8bf8ff" stroke-width="1.4" opacity="0"/></g>
<g transform="translate(-3 0)" opacity="1"><path d="M132 119L94 80L75 84L99 130Z" fill="url(#sleeve)"/><rect x="67" y="47" width="23" height="31" rx="10" fill="url(#glove)"/><path d="M17 102L36 75L50 82L37 126Z" fill="url(#sleeve)"/><rect x="31" y="57" width="19" height="29" rx="9" fill="url(#glove)"/></g>
</g></svg><svg x="256" y="0" width="128" height="128" viewBox="0 0 128 128" overflow="hidden"><g class="frame row-0">
<g><rect x="22" y="27" width="78" height="64" rx="9" fill="url(#case)" stroke="#7b868b" stroke-width="1.2"/><path d="M28 32L43 24H80L96 35V81L84 92H38L22 79Z" fill="none" stroke="#414b50" stroke-width="2"/><rect x="32" y="34" width="40" height="18" rx="3" fill="#071518" stroke="#477e82"/><path d="M38 44Q49 35 61 43Q53 51 39 47Z" fill="#42edff" opacity="0.38"/><path d="M75 25V8h7v19" fill="#30383d" stroke="#7c878b"/><rect x="75" y="13" width="7" height="3" fill="#ff4940" opacity="0.18"/><rect x="42" y="57" width="29" height="26" rx="4" fill="#10161a" stroke="#68737a"/><rect x="51" y="61" width="11" height="17" rx="2" fill="#3b1615" stroke="#8d4841"/><rect x="53" y="64" width="7" height="8" rx="1.5" fill="#ff3c32" opacity="0.32"/><rect x="27" y="57" width="4" height="26" rx="2" fill="#ff3d31" opacity="0.18"/><rect x="91" y="57" width="4" height="26" rx="2" fill="#ff3d31" opacity="0.18"/><circle cx="57" cy="70" r="18" fill="none" stroke="#58efff" stroke-width="2.3" stroke-dasharray="7 4" opacity="0.12"/><circle cx="57" cy="70" r="12" fill="none" stroke="#8bf8ff" stroke-width="1.4" opacity="0"/></g>
<g transform="translate(-6 0)" opacity="1"><path d="M132 119L94 80L75 84L99 130Z" fill="url(#sleeve)"/><rect x="67" y="47" width="23" height="31" rx="10" fill="url(#glove)"/><path d="M17 102L36 75L50 82L37 126Z" fill="url(#sleeve)"/><rect x="31" y="57" width="19" height="29" rx="9" fill="url(#glove)"/></g>
</g></svg><svg x="384" y="0" width="128" height="128" viewBox="0 0 128 128" overflow="hidden"><g class="frame row-0">
<g><rect x="22" y="27" width="78" height="64" rx="9" fill="url(#case)" stroke="#7b868b" stroke-width="1.2"/><path d="M28 32L43 24H80L96 35V81L84 92H38L22 79Z" fill="none" stroke="#414b50" stroke-width="2"/><rect x="32" y="34" width="40" height="18" rx="3" fill="#071518" stroke="#477e82"/><path d="M38 44Q49 35 61 43Q53 51 39 47Z" fill="#42edff" opacity="0.44"/><path d="M75 25V8h7v19" fill="#30383d" stroke="#7c878b"/><rect x="75" y="13" width="7" height="3" fill="#ff4940" opacity="0.5"/><rect x="42" y="57" width="29" height="26" rx="4" fill="#10161a" stroke="#68737a"/><rect x="51" y="61" width="11" height="17" rx="2" fill="#3b1615" stroke="#8d4841"/><rect x="53" y="68" width="7" height="8" rx="1.5" fill="#ff3c32" opacity="0.5"/><rect x="27" y="57" width="4" height="26" rx="2" fill="#ff3d31" opacity="0.5"/><rect x="91" y="57" width="4" height="26" rx="2" fill="#ff3d31" opacity="0.5"/><circle cx="57" cy="70" r="18" fill="none" stroke="#58efff" stroke-width="2.3" stroke-dasharray="7 4" opacity="0.3"/><circle cx="57" cy="70" r="12" fill="none" stroke="#8bf8ff" stroke-width="1.4" opacity="0.12"/></g>
<g transform="translate(-7 0)" opacity="1"><path d="M132 119L94 80L75 84L99 130Z" fill="url(#sleeve)"/><rect x="67" y="47" width="23" height="31" rx="10" fill="url(#glove)"/><rect x="73" y="58" width="24" height="8" rx="4" fill="url(#glove)" transform="rotate(-8 85 62)"/></g>
</g></svg><svg x="0" y="128" width="128" height="128" viewBox="0 0 128 128" overflow="hidden"><g class="frame row-1">
<g><rect x="22" y="27" width="78" height="64" rx="9" fill="url(#case)" stroke="#7b868b" stroke-width="1.2"/><path d="M28 32L43 24H80L96 35V81L84 92H38L22 79Z" fill="none" stroke="#414b50" stroke-width="2"/><rect x="32" y="34" width="40" height="18" rx="3" fill="#071518" stroke="#477e82"/><path d="M38 44Q49 35 61 43Q53 51 39 47Z" fill="#42edff" opacity="0.52"/><path d="M75 25V8h7v19" fill="#30383d" stroke="#7c878b"/><rect x="75" y="13" width="7" height="3" fill="#ff4940" opacity="0.92"/><rect x="42" y="57" width="29" height="26" rx="4" fill="#10161a" stroke="#68737a"/><rect x="51" y="61" width="11" height="17" rx="2" fill="#3b1615" stroke="#8d4841"/><rect x="53" y="68" width="7" height="8" rx="1.5" fill="#ff3c32" opacity="0.92"/><rect x="27" y="57" width="4" height="26" rx="2" fill="#ff3d31" opacity="0.92"/><rect x="91" y="57" width="4" height="26" rx="2" fill="#ff3d31" opacity="0.92"/><circle cx="57" cy="70" r="18" fill="none" stroke="#58efff" stroke-width="2.3" stroke-dasharray="7 4" opacity="0.48"/><circle cx="57" cy="70" r="12" fill="none" stroke="#8bf8ff" stroke-width="1.4" opacity="0.3"/></g>
<g transform="translate(-7 0)" opacity="1"><path d="M132 119L94 80L75 84L99 130Z" fill="url(#sleeve)"/><rect x="67" y="47" width="23" height="31" rx="10" fill="url(#glove)"/><rect x="73" y="58" width="24" height="8" rx="4" fill="url(#glove)" transform="rotate(-8 85 62)"/></g>
</g></svg><svg x="128" y="128" width="128" height="128" viewBox="0 0 128 128" overflow="hidden"><g class="frame row-1">
<g><rect x="22" y="27" width="78" height="64" rx="9" fill="url(#case)" stroke="#7b868b" stroke-width="1.2"/><path d="M28 32L43 24H80L96 35V81L84 92H38L22 79Z" fill="none" stroke="#414b50" stroke-width="2"/><rect x="32" y="34" width="40" height="18" rx="3" fill="#071518" stroke="#477e82"/><path d="M38 44Q49 35 61 43Q53 51 39 47Z" fill="#42edff" opacity="0.95"/><path d="M75 25V8h7v19" fill="#30383d" stroke="#7c878b"/><rect x="75" y="13" width="7" height="3" fill="#ff4940" opacity="1"/><rect x="42" y="57" width="29" height="26" rx="4" fill="#10161a" stroke="#68737a"/><rect x="51" y="61" width="11" height="17" rx="2" fill="#3b1615" stroke="#8d4841"/><rect x="53" y="68" width="7" height="8" rx="1.5" fill="#ff3c32" opacity="1"/><rect x="27" y="57" width="4" height="26" rx="2" fill="#ff3d31" opacity="1"/><rect x="91" y="57" width="4" height="26" rx="2" fill="#ff3d31" opacity="1"/><circle cx="57" cy="70" r="18" fill="none" stroke="#58efff" stroke-width="2.3" stroke-dasharray="7 4" opacity="0.94"/><circle cx="57" cy="70" r="12" fill="none" stroke="#8bf8ff" stroke-width="1.4" opacity="0.76"/><path d="M50 70l5 5 11-13" fill="none" stroke="#d9ffff" stroke-width="3.2" stroke-linecap="round" stroke-linejoin="round" opacity="0.2"/></g>
<g transform="translate(-7 0)" opacity="1"><path d="M132 119L94 80L75 84L99 130Z" fill="url(#sleeve)"/><rect x="67" y="47" width="23" height="31" rx="10" fill="url(#glove)"/><rect x="73" y="58" width="24" height="8" rx="4" fill="url(#glove)" transform="rotate(-8 85 62)"/></g>
</g></svg><svg x="256" y="128" width="128" height="128" viewBox="0 0 128 128" overflow="hidden"><g class="frame row-1"><path d="M30 36l4 -6" stroke="#ffae45" stroke-width="1.3" opacity="0.75"/><path d="M48 47l5 -5" stroke="#ffae45" stroke-width="1.3" opacity="0.69"/><path d="M66 36l4 -4" stroke="#ffae45" stroke-width="1.3" opacity="0.63"/><path d="M84 47l5 -3" stroke="#ffae45" stroke-width="1.3" opacity="0.57"/>
<g><rect x="22" y="27" width="78" height="64" rx="9" fill="url(#case)" stroke="#7b868b" stroke-width="1.2"/><path d="M28 32L43 24H80L96 35V81L84 92H38L22 79Z" fill="none" stroke="#414b50" stroke-width="2"/><rect x="32" y="34" width="40" height="18" rx="3" fill="#071518" stroke="#477e82"/><path d="M38 44Q49 35 61 43Q53 51 39 47Z" fill="#42edff" opacity="1"/><path d="M75 25V8h7v19" fill="#30383d" stroke="#7c878b"/><rect x="75" y="13" width="7" height="3" fill="#ff4940" opacity="1"/><rect x="42" y="57" width="29" height="26" rx="4" fill="#10161a" stroke="#68737a"/><rect x="51" y="61" width="11" height="17" rx="2" fill="#3b1615" stroke="#8d4841"/><rect x="53" y="68" width="7" height="8" rx="1.5" fill="#ff3c32" opacity="1"/><rect x="27" y="57" width="4" height="26" rx="2" fill="#ff3d31" opacity="1"/><rect x="91" y="57" width="4" height="26" rx="2" fill="#ff3d31" opacity="1"/><circle cx="57" cy="70" r="18" fill="none" stroke="#58efff" stroke-width="2.3" stroke-dasharray="7 4" opacity="1"/><circle cx="57" cy="70" r="12" fill="none" stroke="#8bf8ff" stroke-width="1.4" opacity="0.8200000000000001"/><path d="M50 70l5 5 11-13" fill="none" stroke="#d9ffff" stroke-width="3.2" stroke-linecap="round" stroke-linejoin="round" opacity="1"/></g>
<g transform="translate(-2 0)" opacity="1"><path d="M132 119L94 80L75 84L99 130Z" fill="url(#sleeve)"/><rect x="67" y="47" width="23" height="31" rx="10" fill="url(#glove)"/><rect x="73" y="58" width="24" height="8" rx="4" fill="url(#glove)" transform="rotate(-8 85 62)"/></g>
</g></svg><svg x="384" y="128" width="128" height="128" viewBox="0 0 128 128" overflow="hidden"><g class="frame row-1"><path d="M30 36l4 -6" stroke="#ffae45" stroke-width="1.3" opacity="0.71"/><path d="M48 47l5 -5" stroke="#ffae45" stroke-width="1.3" opacity="0.65"/><path d="M66 36l4 -4" stroke="#ffae45" stroke-width="1.3" opacity="0.59"/><path d="M84 47l5 -3" stroke="#ffae45" stroke-width="1.3" opacity="0.53"/>
<g><rect x="22" y="27" width="78" height="64" rx="9" fill="url(#case)" stroke="#7b868b" stroke-width="1.2"/><path d="M28 32L43 24H80L96 35V81L84 92H38L22 79Z" fill="none" stroke="#414b50" stroke-width="2"/><rect x="32" y="34" width="40" height="18" rx="3" fill="#071518" stroke="#477e82"/><path d="M38 44Q49 35 61 43Q53 51 39 47Z" fill="#42edff" opacity="0.88"/><path d="M75 25V8h7v19" fill="#30383d" stroke="#7c878b"/><rect x="75" y="13" width="7" height="3" fill="#ff4940" opacity="0.92"/><rect x="42" y="57" width="29" height="26" rx="4" fill="#10161a" stroke="#68737a"/><rect x="51" y="61" width="11" height="17" rx="2" fill="#3b1615" stroke="#8d4841"/><rect x="53" y="68" width="7" height="8" rx="1.5" fill="#ff3c32" opacity="0.92"/><rect x="27" y="57" width="4" height="26" rx="2" fill="#ff3d31" opacity="0.92"/><rect x="91" y="57" width="4" height="26" rx="2" fill="#ff3d31" opacity="0.92"/><circle cx="57" cy="70" r="18" fill="none" stroke="#58efff" stroke-width="2.3" stroke-dasharray="7 4" opacity="0.72"/><circle cx="57" cy="70" r="12" fill="none" stroke="#8bf8ff" stroke-width="1.4" opacity="0.54"/><path d="M50 70l5 5 11-13" fill="none" stroke="#d9ffff" stroke-width="3.2" stroke-linecap="round" stroke-linejoin="round" opacity="0.9"/></g>
<g transform="translate(10 0)" opacity="0.22"><path d="M132 119L94 80L75 84L99 130Z" fill="url(#sleeve)"/><rect x="67" y="47" width="23" height="31" rx="10" fill="url(#glove)"/></g>
</g></svg></svg>
