<svg xmlns="http://www.w3.org/2000/svg" viewBox="0 0 1024 320">
<defs>
  <linearGradient id="metal" x1="0" x2="1"><stop stop-color="#0d141d"/><stop offset=".45" stop-color="#263746"/><stop offset="1" stop-color="#101720"/></linearGradient>
  <linearGradient id="steel" x1="0" x2="1"><stop stop-color="#7d94a8"/><stop offset=".45" stop-color="#d8ecf6"/><stop offset="1" stop-color="#70879a"/></linearGradient>
  <linearGradient id="glow" x1="0" x2="1"><stop stop-color="#4bc9ff"/><stop offset="1" stop-color="#d5fbff"/></linearGradient>
  <filter id="g"><feGaussianBlur stdDeviation="8" result="b"/><feMerge><feMergeNode in="b"/><feMergeNode in="SourceGraphic"/></feMerge></filter>
</defs>
<g transform="translate(28 22)">
  <path d="M108 183h156l54-35h276l75 29h156l74 31-74 31H622l-58-24H326l-75 29H98z" fill="url(#metal)" stroke="#557083" stroke-width="7"/>
  <path d="M126 169h139l54-34h284l66 24h181l48 20H669l-71-22H329l-59 34H126z" fill="#32485b" opacity=".72"/>
  <path d="M576 181h285v18H576z" fill="url(#steel)"/>
  <path d="M850 175h101v30H850z" rx="8" fill="#121a22" stroke="#9edfff" stroke-width="5"/>
  <path d="M951 180l40 10-40 10z" fill="#d7fbff" filter="url(#g)"/>
  <path d="M308 217l62 0-18 74h-76z" fill="#111820" stroke="#405768" stroke-width="6"/>
  <path d="M176 215l99 0-48 61H109z" fill="#18232f" stroke="#405768" stroke-width="6"/>
  <path d="M506 219l47 0 49 68h-33l-40-43-39 43h-33z" fill="#71889a"/>
  <g transform="translate(366 54)">
    <rect x="0" y="46" width="270" height="50" rx="24" fill="#121a23" stroke="#5e7e94" stroke-width="7"/>
    <rect x="30" y="58" width="210" height="26" rx="13" fill="#102c3a" stroke="#9eefff" stroke-width="4"/>
    <circle cx="30" cy="71" r="30" fill="#17232d" stroke="#79dfff" stroke-width="7"/>
    <circle cx="240" cy="71" r="30" fill="#17232d" stroke="#79dfff" stroke-width="7"/>
    <circle cx="30" cy="71" r="15" fill="#baf8ff" opacity=".82"/>
    <circle cx="240" cy="71" r="15" fill="#6bd7ff" opacity=".72"/>
  </g>
  <path d="M329 154h244v13H329z" fill="url(#glow)" opacity=".85" filter="url(#g)"/>
  <circle cx="695" cy="190" r="9" fill="#c6fbff" filter="url(#g)"/>
  <text x="415" y="205" fill="#d8f7ff" font-family="Arial Black,Arial,sans-serif" font-size="28" letter-spacing="5">ZAP // SR-9</text>
</g>
</svg>